<?xml version="1.0" standalone="no"?>
<!DOCTYPE svg PUBLIC "-//W3C//DTD SVG 20010904//EN"
 "http://www.w3.org/TR/2001/REC-SVG-20010904/DTD/svg10.dtd">
<svg version="1.0" xmlns="http://www.w3.org/2000/svg"
 width="260.000000pt" height="260.000000pt" viewBox="0 0 260.000000 260.000000"
 preserveAspectRatio="xMidYMid meet">
<metadata>
Created by potrace 1.11, written by Peter Selinger 2001-2013
</metadata>
<g transform="translate(0.000000,260.000000) scale(0.100000,-0.100000)"
fill="#000000" stroke="none">
<path d="M0 1636 l0 -965 52 -10 c59 -12 144 -28 708 -130 359 -65 450 -80
450 -76 0 1 -9 44 -20 96 -10 52 -22 121 -25 154 -11 103 -8 99 -91 136 -153
66 -267 160 -349 288 -112 176 -150 381 -106 581 38 168 98 276 216 389 124
118 325 199 466 189 56 -4 65 -8 95 -41 29 -31 34 -44 34 -85 0 -66 -38 -138
-114 -218 -56 -58 -65 -64 -102 -64 -52 0 -90 28 -103 78 -8 29 -7 41 5 60 23
35 13 35 -37 3 -118 -75 -202 -181 -240 -300 -16 -51 -21 -92 -21 -181 0 -131
19 -207 72 -289 37 -59 151 -168 203 -196 47 -25 53 -17 62 75 30 307 102 586
187 727 40 67 133 155 197 187 169 86 312 70 425 -50 107 -111 160 -259 160
-439 -1 -229 -82 -407 -258 -572 -117 -110 -311 -193 -447 -193 -26 0 -50 -3
-52 -7 -3 -5 8 -80 23 -168 l27 -160 34 3 c19 2 250 43 514 92 264 48 515 94
558 101 l77 13 0 968 0 968 -1300 0 -1300 0 0 -964z"/>
<path d="M1643 1876 c-128 -61 -225 -304 -268 -674 -19 -163 -19 -208 0 -216
22 -8 159 30 229 64 143 71 243 191 293 350 23 76 23 246 1 321 -46 149 -144
208 -255 155z"/>
</g>
</svg>
