<?xml version="1.0" encoding="UTF-8" standalone="no"?>
<svg
   xmlns:dc="http://purl.org/dc/elements/1.1/"
   xmlns:cc="http://creativecommons.org/ns#"
   xmlns:rdf="http://www.w3.org/1999/02/22-rdf-syntax-ns#"
   xmlns:svg="http://www.w3.org/2000/svg"
   xmlns="http://www.w3.org/2000/svg"
   xml:space="preserve"
   enable-background="new 0 0 579.904 225.409"
   viewBox="0 0 579.904 225.409"
   y="0px"
   x="0px"
   id="Layer_1"
   version="1.1"><metadata
     id="metadata9"><rdf:RDF><cc:Work
         rdf:about=""><dc:format>image/svg+xml</dc:format><dc:type
           rdf:resource="http://purl.org/dc/dcmitype/StillImage" /><dc:title></dc:title></cc:Work></rdf:RDF></metadata><defs
     id="defs7" /><path
     id="path3"
     d="M63.754,33.853l-29.902,67.704h20.901l5.6-13.701h29.402l5.5,13.701h20.901L86.356,33.853H63.754z M65.154,76.055  l10.001-24.701l9.9,24.701H65.154z M139.853,72.354c1.601-2.1,4.801-7.801,10.701-7.801c7.601,0,7.201,8.001,7.201,11.201v25.802  h17.601V72.354c0-4.5,0.6-21.401-17.901-21.401c-6.5,0-12.001,2-17.602,8.001v-7.101h-17.601v49.703h17.601V72.354z M183.75,89.956  c0,5.4,3.101,12.5,14.801,12.5c8.601,0,12.701-3.1,15.401-5.3c0.6,1.8,1.8,5.3,8.5,5.3c6.9,0,11.5-2,15.001-3.399v-9.201  c-0.9,0.4-2.8,1.4-4.5,1.4c-1.9,0-2.4-1.9-2.4-5.4V66.654c0-9.501-6.9-15.701-21.702-15.701c-8.5,0-16.801,2.101-23.401,6.801  v13.501c4.4-4.4,11.201-9.101,19.701-9.101c7.201,0,7.801,4,7.801,7.7c-1.9,1-2.7,1.2-10.301,3.601  C191.851,76.854,183.75,80.255,183.75,89.956z M212.953,77.755v11.801c-1.3,1-4.4,3.4-7.201,3.4c-2.3,0-4.8-1.5-4.8-5.101  C200.952,82.755,206.052,80.655,212.953,77.755z M261.452,33.853h-17.601v67.704h17.601V33.853z M275.25,124.158h17.801  l33.803-72.305h-17.102l-11.5,24.701l-10.101-24.701H269.25l19.701,43.202L275.25,124.158z M341.851,80.455  c7.9,3.4,10.601,4.7,10.601,7.2c0,2.801-3.4,3.601-6.601,3.601c-6.1,0-11.3-3.101-14.9-5.2v12.501  c5.101,1.899,11.001,3.899,19.201,3.899c13.801,0,19.901-6.9,19.901-15.4c0-7.601-4-11.901-15.901-16.501c-6-2.301-6.4-3.5-6.4-4.9  c0-0.9,0.7-3.5,5.301-3.5c7,0,12.4,3.9,14.4,5V54.953c-7.8-4-15.9-4-17.101-4c-13.801,0-20.201,7.9-20.201,14.901  C330.151,73.555,336.551,78.155,341.851,80.455z M405.952,50.953c-19.001,0-28.502,11.201-28.502,25.702  c0,14.5,9.501,25.801,28.502,25.801s28.502-11.301,28.502-25.801C434.454,62.154,424.953,50.953,405.952,50.953z M405.952,89.355  c-6.601,0-10.001-5.101-10.001-12.7c0-7.601,3.4-12.602,10.001-12.602s10.001,5.001,10.001,12.602  C415.953,84.255,412.552,89.355,405.952,89.355z M478.752,50.953c-6.501,0-12.001,2-17.602,8.001v-7.101H443.55v49.703h17.601  V72.354c1.601-2.1,4.801-7.801,10.701-7.801c7.601,0,7.2,8.001,7.2,11.201v25.802h17.601V72.354  C496.653,67.854,497.253,50.953,478.752,50.953z M530.15,70.555c-6-2.301-6.4-3.5-6.4-4.9c0-0.9,0.7-3.5,5.301-3.5  c7,0,12.4,3.9,14.4,5V54.953c-7.8-4-15.9-4-17.101-4c-13.801,0-20.201,7.9-20.201,14.901c0,7.7,6.4,12.301,11.7,14.601  c7.9,3.4,10.601,4.7,10.601,7.2c0,2.801-3.4,3.601-6.601,3.601c-6.1,0-11.3-3.101-14.9-5.2v12.501  c5.101,1.899,11.001,3.899,19.201,3.899c13.801,0,19.901-6.9,19.901-15.4C546.051,79.455,542.051,75.154,530.15,70.555z   M75.155,149.254l-20.801-25.401H35.853v67.704h19.801v-39.202l18.501,22.701h1.6l18.401-22.701v39.202h20.401v-67.704H96.057  L75.155,149.254z M169.455,175.855v-19.201c0-9.5-6.9-15.701-21.702-15.701c-8.5,0-16.801,2.101-23.401,6.801v13.501  c4.4-4.4,11.201-9.101,19.701-9.101c7.201,0,7.801,4,7.801,7.7c-1.9,1-2.7,1.2-10.301,3.601c-10.801,3.4-18.901,6.8-18.901,16.501  c0,5.4,3.101,12.501,14.801,12.501c8.601,0,12.701-3.101,15.401-5.301c0.6,1.8,1.8,5.301,8.5,5.301c6.9,0,11.5-2,15.001-3.4v-9.201  c-0.9,0.4-2.8,1.4-4.5,1.4C169.955,181.256,169.455,179.355,169.455,175.855z M151.854,179.556c-1.3,1-4.4,3.4-7.201,3.4  c-2.3,0-4.8-1.5-4.8-5.101c0-5.1,5.101-7.2,12.001-10.101V179.556z M198.253,166.555c0-8.6,6.7-11.601,12-11.601  c4.101,0,10.201,1.7,13.401,2.7v-13.801c-3.9-1.399-8.101-2.9-16.001-2.9c-23.701,0-27.902,18.002-27.902,25.602  c0,7.601,4.201,25.902,27.902,25.902c7.9,0,12.801-1.801,16.801-3.2v-13.801c-4.2,1.3-10.101,3-14.201,3  C204.953,178.456,198.253,175.056,198.253,166.555z M266.152,140.953c-8.5,0-14.101,8.501-15.701,12.901v-12.001h-17.601v49.703  h17.601v-21.401c3.5-9.601,7.1-11.801,11.601-11.801c3.1,0,5.4,1.2,8.101,3.801l6.5-17.602  C273.553,142.653,270.753,140.953,266.152,140.953z M304.352,140.953c-19.001,0-28.502,11.201-28.502,25.702  s9.501,25.802,28.502,25.802s28.502-11.301,28.502-25.802S323.353,140.953,304.352,140.953z M304.352,179.355  c-6.601,0-10.001-5.1-10.001-12.7s3.4-12.601,10.001-12.601s10.001,5,10.001,12.601S310.953,179.355,304.352,179.355z   M377.153,140.953c-6.501,0-12.001,2.001-17.602,8.001v-7.101h-17.601v49.703h17.601v-29.202c1.601-2.1,4.801-7.8,10.701-7.8  c7.601,0,7.2,8,7.2,11.2v25.802h17.601v-29.202C395.053,157.854,395.654,140.953,377.153,140.953z M414.15,171.455  c-5.7,0-10.601,4.601-10.601,10.501c0,5.801,4.9,10.501,10.601,10.501c5.8,0,10.4-4.7,10.4-10.501S419.95,171.455,414.15,171.455z" /></svg>